<svg width="330" height="193" viewBox="0 0 330 193" fill="none" xmlns="http://www.w3.org/2000/svg">
<path d="M48.8599 28.11C48.5299 28.11 54.9599 28.11 58.3699 31.34C61.7799 34.57 61.2599 41.18 65.3699 44.26C69.4799 47.34 75.9099 46.88 79.1899 51.26C82.4699 55.64 76.3999 63.62 75.7799 67.95C74.6599 75.78 74.2399 82.95 78.4699 90.02C82.4699 96.65 91.5399 104.5 98.5799 107.32C101.41 108.45 108.12 112.61 110.23 114.72C112.78 117.27 114.3 123.07 114.71 125.54C117.3 141.05 96.9499 137.92 89.7699 145.1C85.5199 149.35 90.2799 165.1 92.6399 169.85C96.0599 176.68 101.82 184.57 109.33 186.44C110.65 186.77 115.03 187.37 116.33 186.07C117.08 185.32 117.6 181.4 117.4 180.44C117.04 178.65 116.57 176.03 115.4 174.52C113.2 171.59 106.53 167.37 111.27 163.57C113.6 161.71 121.27 160.7 132.62 156.57C143.97 152.44 155.95 135.15 155.95 131.99" stroke="black" stroke-width="3.47" stroke-linecap="round" stroke-linejoin="round"/>
<path d="M141.08 51.43C141.45 51.43 134.56 47.56 132.64 46.43C126.521 42.8811 120.851 38.6105 115.75 33.71C109.17 27.13 102.87 20.88 94.0399 17.57C87.7699 15.21 80.7199 15.68 74.6599 13.26C69.4399 11.17 67.0199 2.87001 61.57 1.78001C59.29 1.32001 59.23 5.24001 59.23 6.78001C59.23 6.86001 59.2899 7.50001 59.0599 7.50001C58.6499 7.50001 56.06 2.98 55.29 3.73C54.52 4.48 55.5399 13.98 55.8299 15.39C55.9599 16.06 57.4299 18.65 57.0799 19.16C54.2399 23.43 49.1899 26.87 46.4999 31.36C43.3799 36.56 44.1399 41.7 40.2199 46.61C37.2199 50.36 24.58 57.97 23.89 59.35C21.63 63.87 29.4199 72.93 33.5799 73.52C38.2499 74.19 44.1 72.61 48.82 72.09C51.534 71.831 54.2726 72.0716 56.8999 72.8C65.3299 74.91 68.8999 93.04 71.7899 100.25C72.8799 102.97 78.6399 111.64 78.0699 113.89C75.3199 125 65.8499 135.93 56.7499 142.71C53.9399 144.83 48.6199 149.22 40.6099 155.45C32.5999 161.68 28.7699 165.32 20.8699 168.73C14.5499 171.46 9.44994 176 4.18994 180.21C1.74994 182.21 0.599926 184.88 3.10993 187.39C8.26993 192.54 17.1099 189.91 22.4899 187.21C28.4099 184.21 34.9699 182.43 40.9599 180.03C48.3599 177.03 56.1099 173.38 64.1099 171.78C66.5899 171.28 67.74 169.11 69.67 167.78C72.67 165.78 75.8399 162.86 78.9999 161.14C82.9499 158.99 87.8099 158.53 87.2499 158.81" stroke="black" stroke-width="3.4" stroke-linecap="round" stroke-linejoin="round"/>
<path d="M65.0099 16.27C72.1499 19.84 65.5499 10.17 64.1099 8.72998" stroke="black" stroke-width="3.26" stroke-linecap="round" stroke-linejoin="round"/>
<path d="M48.1399 41.57C50.6999 39.86 53.8599 42 56.2099 43.18C56.9899 43.57 59.6299 44.08 59.2599 44.26" stroke="black" stroke-width="3.26" stroke-linecap="round" stroke-linejoin="round"/>
<path d="M53.61 45.07C54.84 41.64 50.94 47.42 51.37 47.85C52.31 48.78 54.52 45.77 54.96 45.33C55.7183 44.8121 56.5712 44.4485 57.47 44.26C57.47 44.26 55.47 45.52 54.42 46.05C54.06 46.23 53.37 46.99 53.34 46.59C53.3304 46.0706 53.4221 45.5543 53.61 45.07Z" stroke="black" stroke-width="3.26" stroke-linecap="round" stroke-linejoin="round"/>
<path d="M143.73 53.31L195.02 77.19L219.44 75.02L233.56 57.38" stroke="black" stroke-width="3.26" stroke-linecap="round" stroke-linejoin="round"/>
<path d="M219.99 75.29L253.64 68.78L268.02 48.7L265.85 30.79" stroke="black" stroke-width="3.26" stroke-linecap="round" stroke-linejoin="round"/>
<path d="M252.55 70.14L290.82 48.97L295.98 32.69" stroke="black" stroke-width="3.26" stroke-linecap="round" stroke-linejoin="round"/>
<path d="M254.72 68.51L275.35 99.72L305.75 118.72L326.37 113.02" stroke="black" stroke-width="3.26" stroke-linecap="round" stroke-linejoin="round"/>
<path d="M291.63 80.18L276.17 99.18L236.27 97.28L207.5 101.08L190.68 98.63L166.52 94.29L136.94 84.79L112.79 87.23" stroke="black" stroke-width="3.26" stroke-linecap="round" stroke-linejoin="round"/>
<path d="M292.72 95.65L276.71 98.91L270.47 132.29L283.22 140.43L299.5 143.14" stroke="black" stroke-width="3.26" stroke-linecap="round" stroke-linejoin="round"/>
<path d="M298.69 163.5L284.31 140.43L273.45 150.74L280.51 161.87" stroke="black" stroke-width="3.26" stroke-linecap="round" stroke-linejoin="round"/>
<path d="M287.83 186.56L259.34 170.01L244.41 150.74L273.45 150.47" stroke="black" stroke-width="3.26" stroke-linecap="round" stroke-linejoin="round"/>
<path d="M260.7 184.66L233.83 177.34L243.87 151.01L269.92 133.37L243.87 122.52L237.36 98.91L253.37 70.41" stroke="black" stroke-width="3.26" stroke-linecap="round" stroke-linejoin="round"/>
<path d="M234.1 177.06L221.62 161.32L243.33 150.74L212.93 146.67L171.95 157.25L157.57 160.78L138.03 154.54" stroke="black" stroke-width="3.26" stroke-linecap="round" stroke-linejoin="round"/>
<path d="M221.89 161.05L212.93 147.75L215.37 130.11L244.14 121.7L229.49 147.75" stroke="black" stroke-width="3.26" stroke-linecap="round" stroke-linejoin="round"/>
<path d="M220.8 75.02L206.69 100.53L214.83 129.3L187.42 122.52L212.39 145.58" stroke="black" stroke-width="3.26" stroke-linecap="round" stroke-linejoin="round"/>
<path d="M149.97 143.41L172.5 155.63L187.15 122.52L157.3 132.01L146.71 117.36" stroke="black" stroke-width="3.26" stroke-linecap="round" stroke-linejoin="round"/>
<path d="M143.19 52.5L164.9 93.48L186.06 121.43L206.15 101.08" stroke="black" stroke-width="3.26" stroke-linecap="round" stroke-linejoin="round"/>
<path d="M186.88 121.43L191.22 98.91L218.9 75.29" stroke="black" stroke-width="3.26" stroke-linecap="round" stroke-linejoin="round"/>
<path d="M195.02 76.92L166.52 93.21" stroke="black" stroke-width="3.26" stroke-linecap="round" stroke-linejoin="round"/>
<path d="M136.94 84.79L129.89 71.22" stroke="black" stroke-width="3.26" stroke-linecap="round" stroke-linejoin="round"/>
<path d="M233.83 177.61L259.88 169.74" stroke="black" stroke-width="3.26" stroke-linecap="round" stroke-linejoin="round"/>
<path d="M109.59 87.56C109.524 86.9112 109.713 86.2622 110.115 85.7494C110.518 85.2365 111.104 84.8998 111.75 84.81C112.391 84.753 113.028 84.946 113.53 85.3487C114.031 85.7513 114.357 86.3323 114.44 86.97C114.504 87.6108 114.322 88.2521 113.93 88.7631C113.538 89.2741 112.966 89.6163 112.33 89.72C111.681 89.7908 111.031 89.6041 110.518 89.2001C110.006 88.7962 109.673 88.2072 109.59 87.56Z" fill="black"/>
<path d="M128.14 71.44C128.093 70.9731 128.227 70.506 128.513 70.1343C128.799 69.7625 129.217 69.5142 129.68 69.44C130.154 69.3891 130.629 69.526 131.003 69.8214C131.377 70.1169 131.62 70.5472 131.68 71.02C131.727 71.4869 131.593 71.9539 131.307 72.3257C131.021 72.6974 130.603 72.9458 130.14 73.02C129.666 73.0736 129.189 72.9376 128.815 72.6417C128.44 72.3458 128.198 71.9139 128.14 71.44Z" stroke="black" stroke-width="4.38" stroke-linecap="round" stroke-linejoin="round"/>
<path d="M151.19 132.12C151.051 130.842 151.41 129.559 152.192 128.539C152.974 127.518 154.12 126.838 155.39 126.64C156.665 126.524 157.936 126.907 158.934 127.709C159.932 128.511 160.579 129.67 160.74 130.94C160.879 132.218 160.52 133.501 159.738 134.521C158.955 135.542 157.81 136.222 156.54 136.42C155.268 136.521 154.005 136.132 153.01 135.333C152.016 134.534 151.365 133.384 151.19 132.12Z" fill="black"/>
<path d="M143.2 116.55C143.131 115.908 143.311 115.264 143.704 114.752C144.097 114.24 144.672 113.899 145.31 113.8C145.948 113.74 146.585 113.931 147.085 114.333C147.585 114.734 147.91 115.314 147.99 115.95C148.029 116.265 148.006 116.584 147.922 116.889C147.838 117.195 147.695 117.481 147.501 117.731C147.306 117.982 147.064 118.191 146.789 118.348C146.513 118.505 146.209 118.606 145.895 118.645C145.58 118.684 145.261 118.661 144.956 118.577C144.65 118.494 144.364 118.35 144.114 118.156C143.863 117.961 143.654 117.719 143.497 117.444C143.34 117.168 143.239 116.865 143.2 116.55Z" fill="black"/>
<path d="M161.8 93.71C161.7 92.7004 161.987 91.6905 162.603 90.8847C163.22 90.079 164.119 89.5375 165.12 89.37C166.13 89.2763 167.136 89.5785 167.927 90.2129C168.718 90.8473 169.232 91.7641 169.36 92.77C169.46 93.7796 169.173 94.7895 168.557 95.5953C167.94 96.401 167.041 96.9425 166.04 97.11C165.031 97.2011 164.026 96.898 163.235 96.2641C162.445 95.6302 161.93 94.7148 161.8 93.71Z" fill="black"/>
<path d="M139.64 52.53C139.521 53.6244 139.827 54.7226 140.496 55.5975C141.164 56.4723 142.143 57.0568 143.23 57.23C144.322 57.327 145.409 56.9983 146.265 56.3125C147.12 55.6267 147.677 54.637 147.82 53.55C147.936 52.4545 147.627 51.3563 146.958 50.4818C146.288 49.6073 145.308 49.0232 144.22 48.85C143.129 48.7531 142.043 49.0821 141.189 49.7681C140.336 50.4541 139.78 51.4438 139.64 52.53Z" fill="black"/>
<path d="M190.75 76.42C190.669 77.2278 190.828 78.0416 191.208 78.7592C191.588 79.4768 192.171 80.0662 192.885 80.4533C193.598 80.8405 194.411 81.0081 195.219 80.9352C196.028 80.8623 196.797 80.5521 197.43 80.0435C198.063 79.535 198.531 78.8508 198.777 78.0768C199.022 77.3029 199.033 76.4737 198.809 75.6934C198.584 74.9131 198.135 74.2165 197.516 73.691C196.897 73.1655 196.136 72.8347 195.33 72.74C194.238 72.6406 193.151 72.9687 192.297 73.6551C191.442 74.3416 190.888 75.3328 190.75 76.42Z" fill="black"/>
<path d="M166.96 155.79C166.832 157.008 167.175 158.229 167.919 159.201C168.663 160.174 169.751 160.825 170.96 161.02C172.175 161.128 173.385 160.762 174.336 159.997C175.287 159.233 175.904 158.13 176.06 156.92C176.19 155.703 175.848 154.482 175.103 153.51C174.359 152.539 173.269 151.891 172.06 151.7C170.846 151.589 169.636 151.953 168.685 152.716C167.734 153.479 167.115 154.581 166.96 155.79Z" fill="black"/>
<path d="M182.6 122.28C182.469 123.498 182.811 124.72 183.556 125.694C184.3 126.667 185.39 127.317 186.6 127.51C187.816 127.618 189.027 127.252 189.98 126.488C190.932 125.724 191.552 124.621 191.71 123.41C191.838 122.192 191.495 120.971 190.751 119.999C190.007 119.026 188.919 118.375 187.71 118.18C186.493 118.069 185.281 118.434 184.328 119.199C183.375 119.964 182.755 121.068 182.6 122.28Z" fill="black"/>
<path d="M239.45 149.71C239.322 150.927 239.666 152.146 240.41 153.117C241.154 154.088 242.242 154.737 243.45 154.93C244.664 155.041 245.874 154.677 246.825 153.914C247.776 153.151 248.395 152.049 248.55 150.84C248.678 149.622 248.335 148.401 247.591 147.429C246.847 146.456 245.759 145.805 244.55 145.61C243.335 145.504 242.127 145.872 241.177 146.636C240.226 147.4 239.608 148.501 239.45 149.71Z" fill="black"/>
<path d="M240.4 121.61C240.301 122.574 240.573 123.54 241.163 124.309C241.752 125.079 242.613 125.594 243.57 125.75C244.526 125.825 245.475 125.529 246.219 124.924C246.963 124.319 247.447 123.451 247.57 122.5C247.671 121.536 247.399 120.571 246.809 119.802C246.219 119.034 245.357 118.521 244.4 118.37C243.445 118.293 242.496 118.586 241.751 119.189C241.007 119.793 240.523 120.659 240.4 121.61Z" fill="black"/>
<path d="M289.2 79.85C289.124 80.5615 289.325 81.2747 289.761 81.8423C290.196 82.4099 290.833 82.7886 291.54 82.9C292.253 82.9734 292.967 82.7643 293.528 82.3175C294.089 81.8706 294.452 81.2217 294.54 80.51C294.615 79.7985 294.414 79.0853 293.979 78.5177C293.543 77.95 292.907 77.5714 292.2 77.46C291.487 77.3892 290.775 77.5993 290.214 78.0456C289.654 78.492 289.29 79.1394 289.2 79.85Z" fill="black"/>
<path d="M290.59 95.13C290.477 96.1872 290.774 97.2476 291.419 98.0923C292.065 98.9371 293.01 99.5018 294.06 99.67C295.116 99.7641 296.168 99.4462 296.996 98.7828C297.823 98.1193 298.362 97.1616 298.5 96.11C298.608 95.0522 298.308 93.9931 297.661 93.1492C297.014 92.3053 296.07 91.7404 295.02 91.57C293.965 91.476 292.914 91.7942 292.088 92.4579C291.262 93.1216 290.725 94.0792 290.59 95.13Z" fill="black"/>
<path d="M323.75 112.71C323.69 113.413 323.898 114.112 324.332 114.668C324.766 115.225 325.394 115.597 326.09 115.71C326.802 115.778 327.513 115.567 328.073 115.121C328.633 114.675 328.997 114.03 329.09 113.32C329.163 112.608 328.962 111.895 328.527 111.326C328.092 110.757 327.456 110.376 326.75 110.26C326.029 110.195 325.311 110.416 324.751 110.873C324.19 111.331 323.831 111.991 323.75 112.71Z" fill="black"/>
<path d="M298.75 142.84C298.674 143.553 298.875 144.267 299.31 144.836C299.746 145.406 300.383 145.786 301.09 145.9C301.804 145.968 302.516 145.756 303.076 145.308C303.636 144.86 304 144.211 304.09 143.5C304.152 142.797 303.945 142.096 303.511 141.539C303.076 140.983 302.447 140.611 301.75 140.5C301.045 140.428 300.339 140.631 299.78 141.067C299.221 141.503 298.852 142.138 298.75 142.84Z" fill="black"/>
<path d="M296.85 164.28C296.797 164.805 296.9 165.333 297.146 165.8C297.392 166.266 297.77 166.649 298.233 166.902C298.696 167.154 299.223 167.265 299.748 167.219C300.274 167.173 300.774 166.974 301.186 166.645C301.599 166.317 301.905 165.874 302.067 165.372C302.229 164.87 302.239 164.332 302.096 163.824C301.954 163.316 301.665 162.862 301.265 162.518C300.865 162.174 300.373 161.956 299.85 161.89C299.137 161.817 298.423 162.026 297.862 162.473C297.301 162.919 296.938 163.568 296.85 164.28Z" fill="black"/>
<path d="M278.58 163.17C278.52 163.873 278.728 164.572 279.162 165.128C279.596 165.685 280.224 166.057 280.92 166.17C281.632 166.236 282.341 166.024 282.9 165.578C283.459 165.133 283.825 164.489 283.92 163.78C283.993 163.068 283.792 162.355 283.357 161.786C282.922 161.217 282.286 160.836 281.58 160.72C280.859 160.655 280.141 160.876 279.58 161.333C279.02 161.791 278.661 162.451 278.58 163.17Z" fill="black"/>
<path d="M280.51 140.95C280.411 141.865 280.667 142.782 281.226 143.514C281.784 144.245 282.602 144.734 283.51 144.88C284.423 144.962 285.332 144.687 286.047 144.113C286.761 143.538 287.225 142.709 287.34 141.8C287.436 140.887 287.179 139.972 286.621 139.243C286.063 138.513 285.247 138.026 284.34 137.88C283.429 137.797 282.521 138.071 281.807 138.643C281.092 139.216 280.628 140.042 280.51 140.95Z" fill="black"/>
<path d="M255.67 169.34C255.574 170.253 255.831 171.168 256.389 171.897C256.947 172.627 257.763 173.114 258.67 173.26C259.581 173.34 260.487 173.065 261.201 172.494C261.914 171.922 262.38 171.096 262.5 170.19C262.594 169.276 262.336 168.361 261.778 167.631C261.221 166.901 260.406 166.41 259.5 166.26C258.587 166.18 257.679 166.456 256.966 167.03C256.252 167.604 255.788 168.432 255.67 169.34Z" fill="black"/>
<path d="M285.57 186.53C285.497 187.242 285.698 187.955 286.133 188.524C286.568 189.093 287.203 189.474 287.91 189.59C288.448 189.665 288.996 189.578 289.485 189.341C289.974 189.104 290.381 188.726 290.655 188.257C290.928 187.788 291.056 187.248 291.023 186.706C290.989 186.163 290.795 185.643 290.464 185.212C290.134 184.78 289.684 184.457 289.169 184.282C288.655 184.107 288.1 184.089 287.575 184.23C287.051 184.372 286.58 184.666 286.223 185.075C285.866 185.485 285.639 185.991 285.57 186.53Z" fill="black"/>
<path d="M259.11 184.34C259.048 185.043 259.255 185.744 259.689 186.301C260.123 186.857 260.753 187.229 261.45 187.34C262.162 187.408 262.873 187.197 263.433 186.751C263.993 186.305 264.357 185.66 264.45 184.95C264.526 184.237 264.325 183.523 263.89 182.954C263.454 182.384 262.817 182.004 262.11 181.89C261.388 181.823 260.669 182.042 260.108 182.5C259.547 182.959 259.188 183.62 259.11 184.34Z" fill="black"/>
<path d="M231.37 176.77C231.271 177.684 231.528 178.6 232.086 179.33C232.645 180.059 233.462 180.546 234.37 180.69C235.282 180.775 236.191 180.502 236.906 179.93C237.62 179.357 238.084 178.529 238.2 177.62C238.298 176.706 238.042 175.79 237.483 175.06C236.925 174.331 236.107 173.844 235.2 173.7C234.288 173.615 233.379 173.887 232.664 174.46C231.949 175.033 231.485 175.861 231.37 176.77Z" fill="black"/>
<path d="M218.93 160.71C218.834 161.623 219.091 162.538 219.649 163.267C220.207 163.997 221.023 164.484 221.93 164.63C222.847 164.709 223.759 164.427 224.473 163.845C225.186 163.262 225.644 162.425 225.75 161.51C225.843 160.597 225.585 159.683 225.028 158.955C224.47 158.226 223.655 157.738 222.75 157.59C221.832 157.511 220.92 157.793 220.207 158.375C219.494 158.958 219.036 159.795 218.93 160.71Z" fill="black"/>
<path d="M266.15 132.55C266.052 133.464 266.308 134.38 266.866 135.11C267.425 135.839 268.242 136.326 269.15 136.47C270.063 136.552 270.972 136.277 271.687 135.703C272.401 135.129 272.865 134.299 272.98 133.39C273.076 132.477 272.819 131.562 272.261 130.833C271.703 130.103 270.886 129.616 269.98 129.47C269.067 129.388 268.158 129.663 267.443 130.237C266.729 130.811 266.265 131.641 266.15 132.55Z" fill="black"/>
<path d="M291.55 32.13C291.422 33.3244 291.757 34.5224 292.487 35.4769C293.216 36.4313 294.284 37.0696 295.47 37.26C296.658 37.3658 297.841 37.0088 298.773 36.2636C299.704 35.5184 300.312 34.4424 300.47 33.26C300.595 32.0645 300.257 30.8666 299.526 29.9124C298.795 28.9582 297.727 28.3204 296.54 28.13C295.353 28.0269 294.173 28.3851 293.243 29.13C292.314 29.875 291.707 30.9494 291.55 32.13Z" fill="black"/>
<path d="M266.12 32.68C267.6 32.68 268.8 31.4532 268.8 29.94C268.8 28.4267 267.6 27.2 266.12 27.2C264.64 27.2 263.44 28.4267 263.44 29.94C263.44 31.4532 264.64 32.68 266.12 32.68Z" fill="black"/>
<path d="M231.36 56.93C231.3 57.6328 231.508 58.3323 231.942 58.8885C232.376 59.4447 233.004 59.8166 233.7 59.93C234.412 59.9982 235.123 59.7872 235.683 59.3413C236.243 58.8954 236.607 58.2495 236.7 57.54C236.773 56.8278 236.572 56.1146 236.137 55.5459C235.702 54.9772 235.066 54.596 234.36 54.48C233.639 54.4153 232.921 54.6356 232.36 55.0935C231.8 55.5514 231.441 56.2106 231.36 56.93Z" fill="black"/>
<path d="M250.17 67.45C250.042 68.6667 250.385 69.8861 251.129 70.8572C251.874 71.8283 252.962 72.4771 254.17 72.67C255.384 72.7809 256.594 72.4167 257.545 71.6539C258.496 70.8911 259.114 69.7892 259.27 68.58C259.398 67.3621 259.055 66.1415 258.311 65.1688C257.567 64.1961 256.479 63.5453 255.27 63.35C254.055 63.2444 252.847 63.6119 251.896 64.3758C250.946 65.1397 250.328 66.241 250.17 67.45Z" fill="black"/>
<path d="M234.62 96.71C234.518 97.6735 234.791 98.6392 235.381 99.4078C235.97 100.176 236.833 100.689 237.79 100.84C238.745 100.917 239.694 100.624 240.438 100.021C241.183 99.4173 241.667 98.5506 241.79 97.6C241.889 96.6358 241.616 95.6701 241.027 94.9005C240.438 94.1309 239.577 93.6156 238.62 93.46C237.664 93.3879 236.717 93.6845 235.973 94.289C235.229 94.8934 234.745 95.7597 234.62 96.71Z" fill="black"/>
<path d="M271.34 97.8C271.214 99.0174 271.558 100.237 272.302 101.209C273.045 102.181 274.132 102.832 275.34 103.03C276.555 103.138 277.765 102.772 278.716 102.007C279.666 101.243 280.284 100.14 280.44 98.93C280.57 97.7117 280.228 96.4897 279.484 95.5165C278.74 94.5432 277.65 93.8929 276.44 93.7C275.225 93.5944 274.017 93.9619 273.066 94.7258C272.116 95.4897 271.498 96.591 271.34 97.8Z" fill="black"/>
<path d="M202.92 100.81C202.803 101.904 203.111 103.001 203.779 103.875C204.446 104.749 205.424 105.335 206.51 105.51C207.602 105.61 208.691 105.282 209.547 104.596C210.403 103.909 210.96 102.918 211.1 101.83C211.219 100.736 210.912 99.6373 210.244 98.7625C209.576 97.8876 208.597 97.3032 207.51 97.13C206.418 97.033 205.331 97.3616 204.475 98.0474C203.62 98.7332 203.063 99.723 202.92 100.81Z" fill="black"/>
<path d="M215.9 74.93C215.781 76.0244 216.087 77.1227 216.756 77.9975C217.424 78.8723 218.403 79.4568 219.49 79.63C220.582 79.727 221.669 79.3983 222.525 78.7126C223.38 78.0268 223.937 77.037 224.08 75.95C224.194 74.8565 223.886 73.7608 223.218 72.8871C222.551 72.0134 221.575 71.4277 220.49 71.25C219.397 71.1504 218.309 71.4782 217.453 72.1644C216.597 72.8507 216.04 73.8419 215.9 74.93Z" fill="black"/>
<path d="M215.4 134.15C217.935 134.15 219.99 132.046 219.99 129.45C219.99 126.854 217.935 124.75 215.4 124.75C212.865 124.75 210.81 126.854 210.81 129.45C210.81 132.046 212.865 134.15 215.4 134.15Z" fill="black"/>
<path d="M155.43 160.76C155.357 161.468 155.556 162.177 155.987 162.744C156.417 163.311 157.048 163.692 157.75 163.81C158.462 163.878 159.173 163.667 159.733 163.221C160.293 162.775 160.657 162.13 160.75 161.42C160.823 160.708 160.622 159.995 160.187 159.426C159.752 158.857 159.116 158.476 158.41 158.36C157.7 158.3 156.994 158.516 156.439 158.963C155.884 159.41 155.523 160.053 155.43 160.76Z" fill="black"/>
</svg>
